<?xml version="1.0" encoding="utf-8"?>
<!-- Generator: Adobe Illustrator 25.2.3, SVG Export Plug-In . SVG Version: 6.00 Build 0)  -->
<svg version="1.1" id="Layer_1" xmlns="http://www.w3.org/2000/svg" xmlns:xlink="http://www.w3.org/1999/xlink" x="0px" y="0px"
	 viewBox="0 0 226.7 42.5" style="enable-background:new 0 0 226.7 42.5;" xml:space="preserve">
<style type="text/css">
	.st0{fill:#2C344D;}
	.st1{fill:#325378;}
	.st2{fill:#186690;}
	.st3{fill:#377AAF;}
	.st4{fill:#1AA9DC;}
	.st5{enable-background:new    ;}
</style>
<rect x="1.8" y="30.6" class="st0" width="10.7" height="10.8"/>
<rect x="1.8" y="15.9" class="st0" width="10.7" height="10.8"/>
<rect x="1.8" y="1.1" class="st0" width="10.7" height="10.8"/>
<rect x="14.7" y="31" class="st1" width="9.9" height="10"/>
<rect x="14.7" y="16.3" class="st1" width="9.9" height="10"/>
<rect x="14.7" y="1.5" class="st1" width="9.9" height="10"/>
<rect x="26.9" y="31.3" class="st2" width="9.4" height="9.4"/>
<rect x="26.9" y="16.5" class="st2" width="9.4" height="9.4"/>
<rect x="26.9" y="1.8" class="st2" width="9.4" height="9.4"/>
<rect x="38.5" y="31.8" class="st3" width="8.5" height="8.5"/>
<rect x="38.5" y="17" class="st3" width="8.5" height="8.5"/>
<rect x="38.5" y="2.3" class="st3" width="8.5" height="8.5"/>
<rect x="49.1" y="32.1" class="st4" width="7.8" height="7.9"/>
<rect x="49.1" y="17.3" class="st4" width="7.8" height="7.9"/>
<rect x="49.1" y="2.6" class="st4" width="7.8" height="7.9"/>
<g class="st5">
	<path class="st0" d="M64,24.3v-8.6h5.6v1.5h-4v2H69v1.5h-3.4v2.1h4v1.5H64z"/>
	<path class="st0" d="M71.2,24.3v-8.6h1.7v7.1h3.9v1.5H71.2z"/>
	<path class="st0" d="M78.1,24.3v-8.6h5.6v1.5h-4v2h3.4v1.5h-3.4v2.1h4v1.5H78.1z"/>
	<path class="st0" d="M91.3,21.6c-0.1,0.9-0.5,1.5-1.1,2c-0.6,0.5-1.2,0.7-2.1,0.7c-0.9,0-1.7-0.3-2.3-0.9c-0.4-0.4-0.6-0.8-0.7-1.3
		c-0.1-0.5-0.1-1.2-0.1-2.1s0-1.7,0.1-2.1c0.1-0.5,0.3-0.9,0.7-1.3c0.6-0.6,1.4-0.9,2.3-0.9c1.8,0,2.8,0.9,3.1,2.7h-1.7
		c-0.2-0.8-0.7-1.2-1.4-1.2c-0.5,0-0.8,0.1-1.1,0.4c-0.2,0.2-0.3,0.4-0.3,0.7c-0.1,0.3-0.1,0.9-0.1,1.7c0,0.8,0,1.4,0.1,1.7
		c0,0.3,0.2,0.5,0.3,0.7c0.2,0.3,0.6,0.4,1.1,0.4c0.8,0,1.2-0.4,1.4-1.2H91.3z"/>
	<path class="st0" d="M95.8,17.1v7.1h-1.7v-7.1h-2.2v-1.5H98v1.5H95.8z"/>
	<path class="st0" d="M103.9,24.3l-1.7-3.4H101v3.4h-1.7v-8.6h3.3c0.8,0,1.5,0.3,2,0.8c0.5,0.5,0.7,1.1,0.7,1.9
		c0,0.6-0.2,1.1-0.5,1.5c-0.3,0.4-0.6,0.6-1.1,0.8l1.9,3.7H103.9z M102.6,17.1H101v2.3h1.6c0.8,0,1.2-0.4,1.2-1.1
		C103.8,17.5,103.4,17.1,102.6,17.1z"/>
	<path class="st0" d="M107.2,24.3v-8.6h1.7v8.6H107.2z"/>
	<path class="st0" d="M116.9,21.6c-0.1,0.9-0.5,1.5-1.1,2c-0.6,0.5-1.2,0.7-2.1,0.7c-0.9,0-1.7-0.3-2.3-0.9
		c-0.4-0.4-0.6-0.8-0.7-1.3c-0.1-0.5-0.1-1.2-0.1-2.1s0-1.7,0.1-2.1c0.1-0.5,0.3-0.9,0.7-1.3c0.6-0.6,1.4-0.9,2.3-0.9
		c1.8,0,2.8,0.9,3.1,2.7h-1.7c-0.2-0.8-0.7-1.2-1.4-1.2c-0.5,0-0.8,0.1-1.1,0.4c-0.2,0.2-0.3,0.4-0.3,0.7c-0.1,0.3-0.1,0.9-0.1,1.7
		c0,0.8,0,1.4,0.1,1.7c0,0.3,0.2,0.5,0.3,0.7c0.2,0.3,0.6,0.4,1.1,0.4c0.8,0,1.2-0.4,1.4-1.2H116.9z"/>
	<path class="st0" d="M123,24.3l-0.5-1.5h-3l-0.5,1.5h-1.7l3.1-8.6h1.3l3.1,8.6H123z M121,18.2l-1.1,3.1h2.1L121,18.2z"/>
	<path class="st0" d="M125.8,24.3v-8.6h1.7v7.1h3.9v1.5H125.8z"/>
	<path class="st0" d="M140.8,24.3l-0.6-0.8l-0.3,0.3c-0.2,0.1-0.3,0.2-0.5,0.3c-0.4,0.2-0.9,0.3-1.4,0.3c-1.9,0-2.8-0.9-2.8-2.6
		c0-0.5,0.2-1,0.5-1.4c0.1-0.2,0.3-0.4,0.5-0.5c0.2-0.1,0.3-0.3,0.6-0.4c-0.1-0.1-0.2-0.2-0.3-0.3c-0.1-0.1-0.2-0.3-0.3-0.4
		c-0.2-0.4-0.3-0.7-0.3-1.1c0-0.6,0.2-1.1,0.6-1.4c0.4-0.4,1-0.6,1.7-0.6c0.7,0,1.2,0.2,1.6,0.6c0.4,0.4,0.6,0.9,0.6,1.5
		c0,0.6-0.3,1.1-0.9,1.5l-0.6,0.4l1.4,1.7c0.3-0.4,0.4-0.9,0.4-1.5h1.5c-0.1,1.2-0.4,2.1-0.9,2.7l1.5,1.8H140.8z M137.6,20.4
		c-0.3,0.2-0.5,0.4-0.6,0.6c-0.2,0.2-0.2,0.5-0.2,0.8c0,0.4,0.1,0.6,0.4,0.9c0.2,0.2,0.5,0.3,0.9,0.3c0.5,0,0.9-0.2,1.3-0.5
		L137.6,20.4z M138.2,16.9c-0.5,0-0.7,0.2-0.7,0.7c0,0.1,0.1,0.3,0.2,0.5c0,0.1,0.1,0.2,0.2,0.2l0.2,0.3l0.4-0.2
		c0.3-0.2,0.5-0.5,0.5-0.7C138.9,17.1,138.6,16.9,138.2,16.9z"/>
	<path class="st0" d="M152.9,21.6c-0.1,0.9-0.5,1.5-1.1,2c-0.6,0.5-1.2,0.7-2.1,0.7c-0.9,0-1.7-0.3-2.3-0.9
		c-0.4-0.4-0.6-0.8-0.7-1.3c-0.1-0.5-0.1-1.2-0.1-2.1s0-1.7,0.1-2.1c0.1-0.5,0.3-0.9,0.7-1.3c0.6-0.6,1.4-0.9,2.3-0.9
		c1.8,0,2.8,0.9,3.1,2.7h-1.7c-0.2-0.8-0.7-1.2-1.4-1.2c-0.5,0-0.8,0.1-1.1,0.4c-0.2,0.2-0.3,0.4-0.3,0.7c-0.1,0.3-0.1,0.9-0.1,1.7
		c0,0.8,0,1.4,0.1,1.7c0,0.3,0.2,0.5,0.3,0.7c0.2,0.3,0.6,0.4,1.1,0.4c0.8,0,1.2-0.4,1.4-1.2H152.9z"/>
	<path class="st0" d="M159.9,20.5c0,0.2,0,0.4,0,0.5c0,0.4,0,0.7-0.1,0.9c-0.1,0.6-0.4,1.1-0.7,1.5c-0.6,0.6-1.4,0.9-2.3,0.9
		c-0.9,0-1.7-0.3-2.3-0.9c-0.4-0.4-0.6-0.9-0.7-1.5c0-0.2-0.1-0.6-0.1-0.9c0-0.1,0-0.3,0-0.5v-1.1c0-0.2,0-0.4,0-0.5
		c0-0.4,0-0.7,0.1-0.9c0.1-0.6,0.4-1.1,0.7-1.5c0.6-0.6,1.4-0.9,2.3-0.9c0.9,0,1.7,0.3,2.3,0.9c0.4,0.4,0.6,0.9,0.7,1.5
		c0,0.3,0.1,0.6,0.1,0.9c0,0.1,0,0.3,0,0.5V20.5z M158.2,18.3c-0.1-0.3-0.2-0.5-0.3-0.7c-0.3-0.3-0.6-0.5-1.1-0.5
		c-0.5,0-0.8,0.2-1.1,0.5c-0.2,0.2-0.3,0.4-0.3,0.7c-0.1,0.3-0.1,0.9-0.1,1.7c0,0.8,0,1.4,0.1,1.7c0,0.3,0.2,0.5,0.3,0.7
		c0.3,0.3,0.6,0.5,1.1,0.5c0.4,0,0.8-0.2,1.1-0.5c0.2-0.2,0.3-0.4,0.3-0.7c0.1-0.3,0.1-0.9,0.1-1.7S158.3,18.6,158.2,18.3z"/>
	<path class="st0" d="M167.7,24.3v-5l-1.6,3.3H165l-1.6-3.3v5h-1.7v-8.6h1.6l2.2,4.7l2.2-4.7h1.6v8.6H167.7z"/>
	<path class="st0" d="M176.7,20.2c-0.5,0.5-1.2,0.8-2.1,0.8H173v3.2h-1.7v-8.6h3.3c0.9,0,1.5,0.3,2.1,0.8c0.5,0.5,0.7,1.1,0.7,1.9
		C177.5,19.1,177.2,19.7,176.7,20.2z M174.6,17.1H173v2.4h1.6c0.8,0,1.2-0.4,1.2-1.2C175.8,17.5,175.4,17.1,174.6,17.1z"/>
	<path class="st0" d="M185,21.3c0,0.9-0.3,1.6-0.9,2.2c-0.6,0.5-1.3,0.8-2.2,0.8s-1.6-0.3-2.2-0.8c-0.6-0.6-0.9-1.3-0.9-2.2v-5.7
		h1.7v5.6c0,1.1,0.5,1.6,1.5,1.6c1,0,1.5-0.5,1.5-1.6v-5.6h1.7V21.3z"/>
	<path class="st0" d="M190.1,17.1v7.1h-1.7v-7.1h-2.2v-1.5h6.1v1.5H190.1z"/>
	<path class="st0" d="M193.7,24.3v-8.6h5.6v1.5h-4v2h3.4v1.5h-3.4v2.1h4v1.5H193.7z"/>
	<path class="st0" d="M205.5,24.3l-1.7-3.4h-1.2v3.4H201v-8.6h3.3c0.8,0,1.5,0.3,2,0.8c0.5,0.5,0.7,1.1,0.7,1.9
		c0,0.6-0.2,1.1-0.5,1.5c-0.3,0.4-0.6,0.6-1.1,0.8l1.9,3.7H205.5z M204.2,17.1h-1.6v2.3h1.6c0.8,0,1.2-0.4,1.2-1.1
		C205.4,17.5,205,17.1,204.2,17.1z"/>
</g>
<g class="st5">
	<path class="st0" d="M99,38.2v-8.6h5.6v1.5h-4v2h3.4v1.5h-3.4v2.1h4v1.5H99z"/>
	<path class="st0" d="M111.3,38.2l-3.4-5.3v5.3h-1.7v-8.6h1.5l3.4,5.3v-5.3h1.7v8.6H111.3z"/>
	<path class="st0" d="M120.8,34.7c0,1.2-0.3,2-0.8,2.6c-0.6,0.7-1.4,1-2.4,1c-0.9,0-1.7-0.3-2.3-0.9c-0.4-0.4-0.6-0.8-0.7-1.3
		c-0.1-0.5-0.1-1.2-0.1-2.1s0-1.7,0.1-2.1c0.1-0.5,0.3-0.9,0.7-1.3c0.6-0.6,1.4-0.9,2.3-0.9c0.9,0,1.7,0.3,2.3,0.8
		c0.5,0.5,0.8,1.1,1,1.9h-1.7c-0.2-0.8-0.7-1.3-1.5-1.3c-0.4,0-0.8,0.2-1.1,0.5c-0.2,0.2-0.3,0.4-0.3,0.7c-0.1,0.3-0.1,0.9-0.1,1.7
		c0,0.8,0,1.4,0.1,1.7c0,0.3,0.2,0.5,0.3,0.7c0.2,0.3,0.6,0.4,1.1,0.4c0.5,0,0.9-0.2,1.2-0.5c0.3-0.3,0.4-0.7,0.4-1.2v-0.3h-1.6
		v-1.4h3.2V34.7z"/>
	<path class="st0" d="M122.4,38.2v-8.6h1.7v8.6H122.4z"/>
	<path class="st0" d="M131.1,38.2l-3.4-5.3v5.3h-1.7v-8.6h1.5l3.4,5.3v-5.3h1.7v8.6H131.1z"/>
	<path class="st0" d="M134.6,38.2v-8.6h5.6v1.5h-4v2h3.4v1.5h-3.4v2.1h4v1.5H134.6z"/>
	<path class="st0" d="M141.8,38.2v-8.6h5.6v1.5h-4v2h3.4v1.5h-3.4v2.1h4v1.5H141.8z"/>
	<path class="st0" d="M153.6,38.2l-1.7-3.4h-1.2v3.4h-1.7v-8.6h3.3c0.8,0,1.5,0.3,2,0.8c0.5,0.5,0.7,1.1,0.7,1.9
		c0,0.6-0.2,1.1-0.5,1.5c-0.3,0.4-0.6,0.6-1.1,0.8l1.9,3.7H153.6z M152.3,31.1h-1.6v2.3h1.6c0.8,0,1.2-0.4,1.2-1.1
		S153.1,31.1,152.3,31.1z"/>
	<path class="st0" d="M156.9,38.2v-8.6h1.7v8.6H156.9z"/>
	<path class="st0" d="M165.6,38.2l-3.4-5.3v5.3h-1.7v-8.6h1.5l3.4,5.3v-5.3h1.7v8.6H165.6z"/>
	<path class="st0" d="M175.1,34.7c0,1.2-0.3,2-0.8,2.6c-0.6,0.7-1.4,1-2.4,1c-0.9,0-1.7-0.3-2.3-0.9c-0.4-0.4-0.6-0.8-0.7-1.3
		c-0.1-0.5-0.1-1.2-0.1-2.1s0-1.7,0.1-2.1c0.1-0.5,0.3-0.9,0.7-1.3c0.6-0.6,1.4-0.9,2.3-0.9c0.9,0,1.7,0.3,2.3,0.8
		c0.5,0.5,0.8,1.1,1,1.9h-1.7c-0.2-0.8-0.7-1.3-1.5-1.3c-0.4,0-0.8,0.2-1.1,0.5c-0.2,0.2-0.3,0.4-0.3,0.7c-0.1,0.3-0.1,0.9-0.1,1.7
		c0,0.8,0,1.4,0.1,1.7c0,0.3,0.2,0.5,0.3,0.7c0.2,0.3,0.6,0.4,1.1,0.4c0.5,0,0.9-0.2,1.2-0.5c0.3-0.3,0.4-0.7,0.4-1.2v-0.3h-1.6
		v-1.4h3.2V34.7z"/>
</g>
<g class="st5">
	<path class="st0" d="M64.9,4.1v5h-1.6v-5h-1.6V2.7h4.7v1.4H64.9z"/>
	<path class="st0" d="M69.9,9.2v-3c0-0.2-0.1-0.4-0.2-0.5c-0.1-0.1-0.2-0.1-0.4-0.1c-0.1,0-0.2,0-0.4,0.1c-0.1,0.1-0.2,0.3-0.2,0.5
		v3h-1.5V2.7h1.5v2c0.3-0.3,0.7-0.5,1.1-0.5c0.5,0,0.9,0.2,1.2,0.5c0.3,0.3,0.4,0.7,0.4,1.3v3.2H69.9z"/>
	<path class="st0" d="M73.7,7.2C73.7,7.7,74,8,74.5,8c0.2,0,0.4,0,0.6-0.1c0.1-0.1,0.3-0.2,0.4-0.3l0.9,0.9
		c-0.3,0.3-0.5,0.5-0.8,0.6c-0.3,0.1-0.7,0.2-1.1,0.2c-0.3,0-0.6,0-0.8-0.1c-0.3-0.1-0.5-0.2-0.7-0.4c-0.2-0.2-0.4-0.4-0.5-0.8
		c-0.1-0.4-0.2-0.8-0.2-1.3c0-0.8,0.2-1.4,0.6-1.9c0.4-0.4,0.9-0.6,1.6-0.6c0.7,0,1.2,0.2,1.6,0.7c0.4,0.4,0.6,1,0.6,1.6v0.7H73.7z
		 M75.1,6.2c0-0.1,0-0.3-0.1-0.4c-0.1-0.3-0.3-0.4-0.6-0.4c-0.3,0-0.5,0.1-0.6,0.4c-0.1,0.1-0.1,0.2-0.1,0.4H75.1z"/>
	<path class="st0" d="M83.1,9.2l-0.3-1h-2l-0.3,1h-1.6l2.3-6.5h1.2l2.3,6.5H83.1z M81.9,5.2l-0.6,1.7h1.1L81.9,5.2z"/>
	<path class="st0" d="M88,9.2V6.3c0-0.2-0.1-0.4-0.2-0.5c-0.1-0.1-0.2-0.1-0.4-0.1s-0.3,0-0.4,0.1c-0.1,0.1-0.2,0.3-0.2,0.5v2.9
		h-1.5V4.3h1.4v0.4c0.3-0.3,0.7-0.5,1.1-0.5c0.4,0,0.8,0.1,1.1,0.4c0.2,0.2,0.3,0.4,0.4,0.7c0.1,0.2,0.1,0.4,0.1,0.7v3.1H88z"/>
	<path class="st0" d="M93.1,9.2V8.8c-0.3,0.3-0.7,0.5-1.1,0.5c-0.5,0-0.9-0.1-1.2-0.4c-0.2-0.2-0.3-0.5-0.4-0.9c0-0.2,0-0.3,0-0.6
		V6.2c0-0.2,0-0.4,0-0.6c0.1-0.4,0.2-0.7,0.4-0.9c0.3-0.3,0.7-0.4,1.2-0.4c0.4,0,0.8,0.1,1.1,0.4V2.7h1.5v6.5H93.1z M93,5.9
		c-0.1-0.2-0.3-0.3-0.5-0.3c-0.3,0-0.4,0.1-0.5,0.3c-0.1,0.2-0.1,0.4-0.1,0.8c0,0.4,0,0.7,0.1,0.8c0.1,0.2,0.3,0.3,0.5,0.3
		c0.3,0,0.4-0.1,0.5-0.3c0.1-0.2,0.1-0.4,0.1-0.8C93.1,6.3,93,6.1,93,5.9z"/>
	<path class="st0" d="M98.2,5.8c-0.2-0.2-0.3-0.3-0.5-0.3c-0.1,0-0.3,0-0.4,0.1c-0.1,0.1-0.2,0.3-0.2,0.5v2.9h-1.5V4.3h1.4v0.4
		c0.1-0.1,0.3-0.2,0.5-0.3c0.2-0.1,0.4-0.1,0.7-0.1c0.5,0,0.8,0.2,1.1,0.5L98.2,5.8z"/>
	<path class="st0" d="M100.9,7.2c0,0.5,0.3,0.8,0.9,0.8c0.2,0,0.4,0,0.6-0.1c0.1-0.1,0.3-0.2,0.4-0.3l0.9,0.9
		c-0.3,0.3-0.5,0.5-0.8,0.6c-0.3,0.1-0.7,0.2-1.1,0.2c-0.3,0-0.6,0-0.8-0.1c-0.3-0.1-0.5-0.2-0.7-0.4c-0.2-0.2-0.4-0.4-0.5-0.8
		c-0.1-0.4-0.2-0.8-0.2-1.3c0-0.8,0.2-1.4,0.6-1.9c0.4-0.4,0.9-0.6,1.6-0.6c0.7,0,1.2,0.2,1.6,0.7c0.4,0.4,0.6,1,0.6,1.6v0.7H100.9z
		 M102.3,6.2c0-0.1,0-0.3-0.1-0.4c-0.1-0.3-0.3-0.4-0.6-0.4c-0.3,0-0.5,0.1-0.6,0.4c-0.1,0.1-0.1,0.2-0.1,0.4H102.3z"/>
	<path class="st0" d="M109.6,9.2h-1.2l-0.9-2.7l-0.9,2.7h-1.2L104,4.3h1.6l0.6,2.5l0.8-2.5h1l0.8,2.5l0.6-2.5h1.6L109.6,9.2z"/>
	<path class="st0" d="M115.9,9.2V8.8c-0.3,0.3-0.7,0.4-1.1,0.4c-0.5,0-0.9-0.1-1.2-0.4c-0.3-0.3-0.4-0.7-0.4-1.1
		c0-0.4,0.1-0.7,0.4-1c0.3-0.3,0.7-0.4,1.2-0.4h1V6.1c0-0.4-0.2-0.6-0.7-0.6c-0.3,0-0.6,0.1-0.8,0.3l-0.9-0.9c0.4-0.4,1-0.7,1.8-0.7
		c1.4,0,2.1,0.6,2.1,1.8v3.2H115.9z M115.9,7.2h-0.7c-0.3,0-0.5,0.1-0.5,0.4c0,0.3,0.2,0.4,0.5,0.4c0.3,0,0.5-0.1,0.6-0.2
		c0.1-0.1,0.1-0.3,0.1-0.5V7.2z"/>
	<path class="st0" d="M121,9.2V6.3c0-0.2-0.1-0.4-0.2-0.5c-0.1-0.1-0.2-0.1-0.4-0.1s-0.3,0-0.4,0.1c-0.2,0.1-0.2,0.3-0.2,0.5v2.9
		h-1.5V4.3h1.4v0.4c0.3-0.3,0.7-0.5,1.1-0.5c0.4,0,0.8,0.1,1.1,0.4c0.2,0.2,0.3,0.4,0.4,0.7c0.1,0.2,0.1,0.4,0.1,0.7v3.1H121z"/>
	<path class="st0" d="M126.2,9.2V8.8c-0.3,0.3-0.7,0.5-1.1,0.5c-0.5,0-0.9-0.1-1.2-0.4c-0.2-0.2-0.3-0.5-0.4-0.9c0-0.2,0-0.3,0-0.6
		V6.2c0-0.2,0-0.4,0-0.6c0.1-0.4,0.2-0.7,0.4-0.9c0.3-0.3,0.7-0.4,1.2-0.4c0.4,0,0.8,0.1,1.1,0.4V2.7h1.5v6.5H126.2z M126,5.9
		c-0.1-0.2-0.3-0.3-0.5-0.3c-0.3,0-0.4,0.1-0.5,0.3c-0.1,0.2-0.1,0.4-0.1,0.8c0,0.4,0,0.7,0.1,0.8c0.1,0.2,0.3,0.3,0.5,0.3
		c0.3,0,0.4-0.1,0.5-0.3c0.1-0.2,0.1-0.4,0.1-0.8C126.1,6.3,126.1,6.1,126,5.9z"/>
	<path class="st0" d="M130.8,9.2V2.7h4.3v1.4h-2.8v1.1h2.4v1.4h-2.4v1.1h2.8v1.4H130.8z"/>
	<path class="st0" d="M138.7,5.8c-0.2-0.2-0.3-0.3-0.5-0.3c-0.1,0-0.3,0-0.4,0.1c-0.1,0.1-0.2,0.3-0.2,0.5v2.9h-1.5V4.3h1.4v0.4
		c0.1-0.1,0.3-0.2,0.5-0.3c0.2-0.1,0.4-0.1,0.7-0.1c0.5,0,0.8,0.2,1.1,0.5L138.7,5.8z"/>
	<path class="st0" d="M143.1,9.2V6.3c0-0.2-0.1-0.4-0.2-0.5c-0.1-0.1-0.2-0.1-0.4-0.1c-0.1,0-0.3,0-0.4,0.1
		c-0.1,0.1-0.2,0.3-0.2,0.5v2.9h-1.5V4.3h1.4v0.4c0.3-0.3,0.7-0.5,1.1-0.5c0.4,0,0.8,0.1,1.1,0.4c0.2,0.2,0.3,0.4,0.4,0.7
		c0.1,0.2,0.1,0.4,0.1,0.7v3.1H143.1z"/>
	<path class="st0" d="M148,9.2V8.8c-0.3,0.3-0.7,0.4-1.1,0.4c-0.5,0-0.9-0.1-1.2-0.4c-0.3-0.3-0.4-0.7-0.4-1.1c0-0.4,0.1-0.7,0.4-1
		c0.3-0.3,0.7-0.4,1.2-0.4h1V6.1c0-0.4-0.2-0.6-0.7-0.6c-0.3,0-0.6,0.1-0.8,0.3l-0.9-0.9c0.4-0.4,1-0.7,1.8-0.7
		c1.4,0,2.1,0.6,2.1,1.8v3.2H148z M147.9,7.2h-0.7c-0.3,0-0.5,0.1-0.5,0.4c0,0.3,0.2,0.4,0.5,0.4c0.3,0,0.5-0.1,0.6-0.2
		c0.1-0.1,0.1-0.3,0.1-0.5V7.2z"/>
	<path class="st0" d="M155.1,9.2H154l-2.1-6.5h1.6l1.1,3.6l1.1-3.6h1.6L155.1,9.2z"/>
	<path class="st0" d="M157.8,3.8V2.7h1.5v1.1H157.8z M157.8,9.2V4.5h1.5v4.7H157.8z"/>
	<path class="st0" d="M162,9.2c-0.5,0-0.9-0.2-1.1-0.5c-0.2-0.3-0.4-0.6-0.4-1V5.6h-0.4V4.5h0.4V3.1h1.5v1.4h0.8v1.1H162v2
		c0,0.2,0.1,0.3,0.3,0.3h0.5v1.3H162z"/>
	<path class="st0" d="M164.9,7.2c0,0.5,0.3,0.8,0.9,0.8c0.2,0,0.4,0,0.6-0.1c0.1-0.1,0.3-0.2,0.4-0.3l0.9,0.9
		c-0.3,0.3-0.5,0.5-0.8,0.6c-0.3,0.1-0.7,0.2-1.1,0.2c-0.3,0-0.6,0-0.8-0.1c-0.3-0.1-0.5-0.2-0.7-0.4c-0.2-0.2-0.4-0.4-0.5-0.8
		c-0.1-0.4-0.2-0.8-0.2-1.3c0-0.8,0.2-1.4,0.6-1.9c0.4-0.4,0.9-0.6,1.6-0.6c0.7,0,1.2,0.2,1.6,0.7c0.4,0.4,0.6,1,0.6,1.6v0.7H164.9z
		 M166.3,6.2c0-0.1,0-0.3-0.1-0.4c-0.1-0.3-0.3-0.4-0.6-0.4c-0.3,0-0.5,0.1-0.6,0.4c-0.1,0.1-0.1,0.2-0.1,0.4H166.3z"/>
	<path class="st0" d="M171.2,5.8c-0.2-0.2-0.3-0.3-0.5-0.3c-0.1,0-0.3,0-0.4,0.1c-0.2,0.1-0.2,0.3-0.2,0.5v2.9h-1.5V4.3h1.4v0.4
		c0.1-0.1,0.3-0.2,0.5-0.3c0.2-0.1,0.4-0.1,0.7-0.1c0.5,0,0.8,0.2,1.1,0.5L171.2,5.8z"/>
	<path class="st0" d="M177.1,7.3c0,0.2,0,0.4,0,0.6c-0.1,0.4-0.2,0.7-0.4,0.9c-0.3,0.3-0.7,0.4-1.2,0.4c-0.4,0-0.8-0.2-1.1-0.5v0.4
		h-1.4V2.7h1.5v1.9c0.3-0.3,0.6-0.4,1.1-0.4c0.5,0,0.9,0.1,1.2,0.4c0.2,0.2,0.3,0.5,0.4,0.9c0,0.2,0,0.3,0,0.6V7.3z M175.5,5.9
		c-0.1-0.2-0.3-0.3-0.5-0.3s-0.4,0.1-0.5,0.3c-0.1,0.2-0.1,0.4-0.1,0.8c0,0.4,0,0.7,0.1,0.8c0.1,0.2,0.3,0.3,0.5,0.3
		s0.4-0.1,0.5-0.3c0.1-0.2,0.1-0.4,0.1-0.8C175.6,6.3,175.6,6.1,175.5,5.9z"/>
	<path class="st0" d="M178,3.8V2.7h1.5v1.1H178z M178,9.2V4.5h1.5v4.7H178z"/>
	<path class="st0" d="M184.3,4.1v1.1h2.4v1.4h-2.4v2.5h-1.6V2.7h4.3v1.4H184.3z"/>
	<path class="st0" d="M190,9.2V8.8c-0.3,0.3-0.7,0.4-1.1,0.4c-0.5,0-0.9-0.1-1.2-0.4c-0.3-0.3-0.4-0.7-0.4-1.1c0-0.4,0.1-0.7,0.4-1
		c0.3-0.3,0.7-0.4,1.2-0.4h1V6.1c0-0.4-0.2-0.6-0.7-0.6c-0.3,0-0.6,0.1-0.8,0.3l-0.9-0.9c0.4-0.4,1-0.7,1.8-0.7
		c1.4,0,2.1,0.6,2.1,1.8v3.2H190z M190,7.2h-0.7c-0.3,0-0.5,0.1-0.5,0.4c0,0.3,0.2,0.4,0.5,0.4c0.3,0,0.5-0.1,0.6-0.2
		c0.1-0.1,0.1-0.3,0.1-0.5V7.2z"/>
	<path class="st0" d="M196,8.6c-0.4,0.4-0.9,0.6-1.6,0.6c-0.2,0-0.5,0-0.7-0.1c-0.3-0.1-0.5-0.2-0.7-0.4c-0.2-0.2-0.4-0.4-0.5-0.8
		c-0.1-0.4-0.2-0.8-0.2-1.3s0.1-0.9,0.2-1.3c0.1-0.3,0.3-0.6,0.5-0.8c0.2-0.2,0.4-0.3,0.7-0.4c0.2-0.1,0.4-0.1,0.7-0.1
		c0.6,0,1.2,0.2,1.6,0.6l-1,1c-0.2-0.2-0.4-0.3-0.6-0.3c-0.2,0-0.3,0.1-0.5,0.2c-0.2,0.2-0.2,0.5-0.2,1s0.1,0.8,0.2,1
		c0.1,0.1,0.3,0.2,0.5,0.2c0.2,0,0.4-0.1,0.6-0.3L196,8.6z"/>
	<path class="st0" d="M199.4,9.2V8.8c-0.3,0.3-0.7,0.5-1.1,0.5s-0.8-0.1-1.1-0.4c-0.2-0.2-0.3-0.4-0.4-0.7c-0.1-0.2-0.1-0.4-0.1-0.7
		V4.3h1.5v2.9c0,0.2,0.1,0.4,0.2,0.5c0.1,0.1,0.2,0.1,0.4,0.1c0.1,0,0.3,0,0.4-0.1c0.2-0.1,0.2-0.3,0.2-0.5V4.3h1.5v4.9H199.4z"/>
	<path class="st0" d="M203.4,9.2c-0.5,0-0.9-0.2-1.1-0.5c-0.2-0.3-0.4-0.6-0.4-1v-5h1.5v4.9c0,0.2,0.1,0.3,0.3,0.3h0.5v1.3H203.4z"
		/>
	<path class="st0" d="M206.6,9.2c-0.5,0-0.9-0.2-1.1-0.5c-0.2-0.3-0.4-0.6-0.4-1V5.6h-0.4V4.5h0.4V3.1h1.5v1.4h0.8v1.1h-0.8v2
		c0,0.2,0.1,0.3,0.3,0.3h0.5v1.3H206.6z"/>
	<path class="st0" d="M210.4,9.8c-0.1,0.3-0.2,0.5-0.4,0.6c-0.3,0.3-0.6,0.4-1.1,0.4h-0.6V9.5h0.3c0.3,0,0.4-0.1,0.5-0.4l0.1-0.4
		l-1.6-4.4h1.5l0.8,2.5l0.8-2.5h1.5L210.4,9.8z"/>
	<path class="st0" d="M218.3,8.6c-0.2,0.2-0.4,0.3-0.6,0.4c-0.3,0.1-0.6,0.2-1,0.2c-0.4,0-0.7-0.1-1-0.2c-0.2-0.1-0.4-0.2-0.6-0.4
		c-0.4-0.4-0.5-1-0.5-1.9c0-0.9,0.2-1.5,0.5-1.9c0.2-0.2,0.4-0.3,0.6-0.4c0.3-0.1,0.6-0.2,1-0.2c0.4,0,0.7,0.1,1,0.2
		c0.2,0.1,0.4,0.2,0.6,0.4c0.4,0.4,0.5,1,0.5,1.9C218.9,7.6,218.7,8.2,218.3,8.6z M217.2,5.7c-0.1-0.1-0.2-0.1-0.4-0.1
		s-0.3,0-0.4,0.1c-0.1,0.1-0.2,0.5-0.2,1c0,0.5,0.1,0.9,0.2,1c0.1,0.1,0.2,0.1,0.4,0.1s0.3,0,0.4-0.1c0.1-0.1,0.2-0.5,0.2-1
		C217.4,6.2,217.3,5.9,217.2,5.7z"/>
	<path class="st0" d="M221.4,5.6v3.5H220V5.6h-0.4V4.5h0.4V4.1c0-0.4,0.1-0.7,0.3-1c0.3-0.3,0.7-0.5,1.2-0.5h0.8v1.3h-0.5
		c-0.2,0-0.3,0.1-0.3,0.3v0.3h0.8v1.1H221.4z"/>
</g>
</svg>
